<?xml version="1.0" encoding="UTF-8" standalone="no"?>
<!DOCTYPE svg PUBLIC "-//W3C//DTD SVG 1.1//EN" "http://www.w3.org/Graphics/SVG/1.1/DTD/svg11.dtd">
<svg width="100%" height="100%" viewBox="0 0 500 500" version="1.1" xmlns="http://www.w3.org/2000/svg" xmlns:xlink="http://www.w3.org/1999/xlink" xml:space="preserve" xmlns:serif="http://www.serif.com/" style="fill-rule:evenodd;clip-rule:evenodd;stroke-linecap:round;stroke-miterlimit:10;">
    <g id="surface763305" transform="matrix(0.921018,0,0,0.921018,19.7455,-9.6366)">
        <clipPath id="_clip1">
            <circle cx="250" cy="281.902" r="271.424"/>
        </clipPath>
        <g clip-path="url(#_clip1)">
            <path d="M151.373,245.825L161.232,228.75L213.194,258.75L203.321,275.849C215.853,288.746 225.251,304.705 230.285,322.5L250,322.5L250,382.5L230.285,382.5C225.252,400.294 215.853,416.255 203.321,429.151L213.194,446.25L161.232,476.25L151.373,459.175C142.746,461.347 133.721,462.5 124.426,462.5C115.131,462.5 106.105,461.347 97.478,459.175L87.619,476.25L35.658,446.25L45.53,429.151C32.998,416.254 23.601,400.295 18.567,382.5L-1.148,382.5L-1.148,322.5L18.567,322.5C23.6,304.706 32.998,288.745 45.53,275.849L35.658,258.75L87.619,228.75L97.478,245.825C106.105,243.653 115.131,242.5 124.426,242.5C133.721,242.5 142.746,243.653 151.373,245.825Z" style="fill:rgb(202,59,51);"/>
            <g transform="matrix(1,0,0,1,-5.68434e-14,-435)">
                <path d="M151.373,245.825L161.232,228.75L213.194,258.75L203.321,275.849C215.853,288.746 225.251,304.705 230.285,322.5L250,322.5L250,382.5L230.285,382.5C225.252,400.294 215.853,416.255 203.321,429.151L213.194,446.25L161.232,476.25L151.373,459.175C142.746,461.347 133.721,462.5 124.426,462.5C115.131,462.5 106.105,461.347 97.478,459.175L87.619,476.25L35.658,446.25L45.53,429.151C32.998,416.254 23.601,400.295 18.567,382.5L-1.148,382.5L-1.148,322.5L18.567,322.5C23.6,304.706 32.998,288.745 45.53,275.849L35.658,258.75L87.619,228.75L97.478,245.825C106.105,243.653 115.131,242.5 124.426,242.5C133.721,242.5 142.746,243.653 151.373,245.825Z" style="fill:rgb(202,59,51);fill-opacity:0.33;"/>
            </g>
            <g transform="matrix(1,0,0,1,2.84217e-14,-435)">
                <path d="M402.522,245.825L412.381,228.75L464.342,258.75L454.47,275.849C467.002,288.746 476.399,304.705 481.433,322.5L501.148,322.5L501.148,382.5L481.433,382.5C476.4,400.294 467.002,416.255 454.47,429.151L464.342,446.25L412.381,476.25L402.522,459.175C393.895,461.347 384.869,462.5 375.574,462.5C366.279,462.5 357.254,461.347 348.627,459.175L338.768,476.25L286.806,446.25L296.679,429.151C284.147,416.254 274.749,400.295 269.715,382.5L250,382.5L250,322.5L269.715,322.5C274.748,304.706 284.147,288.745 296.679,275.849L286.806,258.75L338.768,228.75L348.627,245.825C357.254,243.653 366.279,242.5 375.574,242.5C384.869,242.5 393.895,243.653 402.522,245.825Z" style="fill:rgb(147,89,176);fill-opacity:0.33;"/>
            </g>
            <path d="M402.522,245.825L412.381,228.75L464.342,258.75L454.47,275.849C467.002,288.746 476.399,304.705 481.433,322.5L501.148,322.5L501.148,382.5L481.433,382.5C476.4,400.294 467.002,416.255 454.47,429.151L464.342,446.25L412.381,476.25L402.522,459.175C393.895,461.347 384.869,462.5 375.574,462.5C366.279,462.5 357.254,461.347 348.627,459.175L338.768,476.25L286.806,446.25L296.679,429.151C284.147,416.254 274.749,400.295 269.715,382.5L250,382.5L250,322.5L269.715,322.5C274.748,304.706 284.147,288.745 296.679,275.849L286.806,258.75L338.768,228.75L348.627,245.825C357.254,243.653 366.279,242.5 375.574,242.5C384.869,242.5 393.895,243.653 402.522,245.825Z" style="fill:rgb(147,89,176);"/>
            <g transform="matrix(1,0,0,1,376.723,-217.5)">
                <path d="M151.373,245.825L161.232,228.75L213.194,258.75L203.321,275.849C215.853,288.746 225.251,304.705 230.285,322.5L250,322.5L250,382.5L230.285,382.5C225.252,400.294 215.853,416.255 203.321,429.151L213.194,446.25L161.232,476.25L151.373,459.175C142.746,461.347 133.721,462.5 124.426,462.5C115.131,462.5 106.105,461.347 97.478,459.175L87.619,476.25L35.658,446.25L45.53,429.151C32.998,416.254 23.601,400.295 18.567,382.5L-1.148,382.5L-1.148,322.5L18.567,322.5C23.6,304.706 32.998,288.745 45.53,275.849L35.658,258.75L87.619,228.75L97.478,245.825C106.105,243.653 115.131,242.5 124.426,242.5C133.721,242.5 142.746,243.653 151.373,245.825Z" style="fill:rgb(202,59,51);fill-opacity:0.33;"/>
            </g>
            <g transform="matrix(1,0,0,1,0,435)">
                <path d="M276.948,28.325L286.806,11.25L338.768,41.25L328.895,58.349C341.428,71.246 350.825,87.205 355.859,105L375.574,105L375.574,165L355.859,165C350.826,182.794 341.427,198.755 328.895,211.651L338.768,228.75L286.806,258.75L276.948,241.675C268.32,243.847 259.295,245 250,245C240.705,245 231.68,243.847 223.052,241.675L213.194,258.75L161.232,228.75L171.105,211.651C158.572,198.754 149.175,182.795 144.141,165L124.426,165L124.426,105L144.141,105C149.174,87.206 158.573,71.245 171.105,58.349L161.232,41.25L213.194,11.25L223.052,28.325C231.68,26.153 240.705,25 250,25C259.295,25 268.32,26.153 276.948,28.325Z" style="fill:rgb(56,151,37);fill-opacity:0.33;"/>
            </g>
            <g transform="matrix(1,0,0,1,-376.723,217.5)">
                <path d="M402.522,245.825L412.381,228.75L464.342,258.75L454.47,275.849C467.002,288.746 476.399,304.705 481.433,322.5L501.148,322.5L501.148,382.5L481.433,382.5C476.4,400.294 467.002,416.255 454.47,429.151L464.342,446.25L412.381,476.25L402.522,459.175C393.895,461.347 384.869,462.5 375.574,462.5C366.279,462.5 357.254,461.347 348.627,459.175L338.768,476.25L286.806,446.25L296.679,429.151C284.147,416.254 274.749,400.295 269.715,382.5L250,382.5L250,322.5L269.715,322.5C274.748,304.706 284.147,288.745 296.679,275.849L286.806,258.75L338.768,228.75L348.627,245.825C357.254,243.653 366.279,242.5 375.574,242.5C384.869,242.5 393.895,243.653 402.522,245.825Z" style="fill:rgb(147,89,176);fill-opacity:0.33;"/>
            </g>
            <g transform="matrix(1,0,0,1,376.723,217.5)">
                <path d="M151.373,245.825L161.232,228.75L213.194,258.75L203.321,275.849C215.853,288.746 225.251,304.705 230.285,322.5L250,322.5L250,382.5L230.285,382.5C225.252,400.294 215.853,416.255 203.321,429.151L213.194,446.25L161.232,476.25L151.373,459.175C142.746,461.347 133.721,462.5 124.426,462.5C115.131,462.5 106.105,461.347 97.478,459.175L87.619,476.25L35.658,446.25L45.53,429.151C32.998,416.254 23.601,400.295 18.567,382.5L-1.148,382.5L-1.148,322.5L18.567,322.5C23.6,304.706 32.998,288.745 45.53,275.849L35.658,258.75L87.619,228.75L97.478,245.825C106.105,243.653 115.131,242.5 124.426,242.5C133.721,242.5 142.746,243.653 151.373,245.825Z" style="fill:rgb(202,59,51);fill-opacity:0.33;"/>
            </g>
            <path d="M276.948,28.325L286.806,11.25L338.768,41.25L328.895,58.349C341.428,71.246 350.825,87.205 355.859,105L375.574,105L375.574,165L355.859,165C350.826,182.794 341.427,198.755 328.895,211.651L338.768,228.75L286.806,258.75L276.948,241.675C268.32,243.847 259.295,245 250,245C240.705,245 231.68,243.847 223.052,241.675L213.194,258.75L161.232,228.75L171.105,211.651C158.572,198.754 149.175,182.795 144.141,165L124.426,165L124.426,105L144.141,105C149.174,87.206 158.573,71.245 171.105,58.349L161.232,41.25L213.194,11.25L223.052,28.325C231.68,26.153 240.705,25 250,25C259.295,25 268.32,26.153 276.948,28.325Z" style="fill:rgb(56,151,37);"/>
            <g transform="matrix(1,0,0,1,-376.723,-217.5)">
                <path d="M402.522,245.825L412.381,228.75L464.342,258.75L454.47,275.849C467.002,288.746 476.399,304.705 481.433,322.5L501.148,322.5L501.148,382.5L481.433,382.5C476.4,400.294 467.002,416.255 454.47,429.151L464.342,446.25L412.381,476.25L402.522,459.175C393.895,461.347 384.869,462.5 375.574,462.5C366.279,462.5 357.254,461.347 348.627,459.175L338.768,476.25L286.806,446.25L296.679,429.151C284.147,416.254 274.749,400.295 269.715,382.5L250,382.5L250,322.5L269.715,322.5C274.748,304.706 284.147,288.745 296.679,275.849L286.806,258.75L338.768,228.75L348.627,245.825C357.254,243.653 366.279,242.5 375.574,242.5C384.869,242.5 393.895,243.653 402.522,245.825Z" style="fill:rgb(147,89,176);fill-opacity:0.33;"/>
            </g>
            <g transform="matrix(1,0,0,0.419262,-2.84217e-14,77.7743)">
                <g transform="matrix(1.08576,-0,-0,2.58968,-21.4388,-160.547)">
                    <path d="M237.085,103.93L250,91.015L262.915,103.93" style="fill:none;stroke:black;stroke-width:4px;"/>
                    <path d="M250,141.215L250,91.015" style="fill:none;stroke:black;stroke-width:4px;stroke-linejoin:round;stroke-miterlimit:1.5;"/>
                </g>
            </g>
            <path d="M276.948,28.325L286.806,11.25L338.768,41.25L328.895,58.349C341.428,71.246 350.825,87.205 355.859,105L375.574,105L375.574,165L355.859,165C350.826,182.794 341.427,198.755 328.895,211.651L338.768,228.75L286.806,258.75L276.948,241.675C268.32,243.847 259.295,245 250,245C240.705,245 231.68,243.847 223.052,241.675L213.194,258.75L161.232,228.75L171.105,211.651C158.572,198.754 149.175,182.795 144.141,165L124.426,165L124.426,105L144.141,105C149.174,87.206 158.573,71.245 171.105,58.349L161.232,41.25L213.194,11.25L223.052,28.325C231.68,26.153 240.705,25 250,25C259.295,25 268.32,26.153 276.948,28.325Z" style="fill:rgb(56,151,37);"/>
            <g transform="matrix(1,0,0,1,251.148,0)">
                <path d="M402.522,245.825L412.381,228.75L464.342,258.75L454.47,275.849C467.002,288.746 476.399,304.705 481.433,322.5L501.148,322.5L501.148,382.5L481.433,382.5C476.4,400.294 467.002,416.255 454.47,429.151L464.342,446.25L412.381,476.25L402.522,459.175C393.895,461.347 384.869,462.5 375.574,462.5C366.279,462.5 357.254,461.347 348.627,459.175L338.768,476.25L286.806,446.25L296.679,429.151C284.147,416.254 274.749,400.295 269.715,382.5L250,382.5L250,322.5L269.715,322.5C274.748,304.706 284.147,288.745 296.679,275.849L286.806,258.75L338.768,228.75L348.627,245.825C357.254,243.653 366.279,242.5 375.574,242.5C384.869,242.5 393.895,243.653 402.522,245.825Z" style="fill:rgb(56,151,38);fill-opacity:0.33;"/>
            </g>
            <g transform="matrix(1,0,0,1,-251.148,0)">
                <path d="M151.373,245.825L161.232,228.75L213.194,258.75L203.321,275.849C215.853,288.746 225.251,304.705 230.285,322.5L250,322.5L250,382.5L230.285,382.5C225.252,400.294 215.853,416.255 203.321,429.151L213.194,446.25L161.232,476.25L151.373,459.175C142.746,461.347 133.721,462.5 124.426,462.5C115.131,462.5 106.105,461.347 97.478,459.175L87.619,476.25L35.658,446.25L45.53,429.151C32.998,416.254 23.601,400.295 18.567,382.5L-1.148,382.5L-1.148,322.5L18.567,322.5C23.6,304.706 32.998,288.745 45.53,275.849L35.658,258.75L87.619,228.75L97.478,245.825C106.105,243.653 115.131,242.5 124.426,242.5C133.721,242.5 142.746,243.653 151.373,245.825Z" style="fill:rgb(56,151,38);fill-opacity:0.33;"/>
            </g>
            <g transform="matrix(1,0,0,0.419262,-2.84217e-14,77.7743)">
                <g transform="matrix(1.08576,-0,-0,2.58968,-21.4388,-160.547)">
                    <path d="M237.085,103.93L250,91.015L262.915,103.93" style="fill:none;stroke:black;stroke-width:4px;"/>
                    <path d="M250,141.215L250,91.015" style="fill:none;stroke:black;stroke-width:4px;stroke-linejoin:round;stroke-miterlimit:1.5;"/>
                </g>
            </g>
            <g transform="matrix(1,0,0,0.419262,3.55271e-15,512.774)">
                <g transform="matrix(1.08576,-0,-0,2.58968,-21.4388,-1198.08)">
                    <path d="M237.085,504.573L250,491.658L262.915,504.573" style="fill:none;stroke:black;stroke-opacity:0.33;stroke-width:4px;"/>
                    <path d="M250,541.858L250,491.658" style="fill:none;stroke:black;stroke-opacity:0.33;stroke-width:4px;stroke-linejoin:round;stroke-miterlimit:1.5;"/>
                </g>
            </g>
            <g transform="matrix(-0.5,-0.866025,0.363092,-0.209631,576.589,380.119)">
                <g transform="matrix(-0.542878,2.24273,-0.940291,-1.29484,619.146,-794.442)">
                    <path d="M478.442,131.271L460.8,126.544L465.527,108.901" style="fill:none;stroke:black;stroke-opacity:0.33;stroke-width:4px;"/>
                    <path d="M504.274,101.444C504.274,101.444 470.312,121.052 460.8,126.544" style="fill:none;stroke:black;stroke-opacity:0.33;stroke-width:4px;stroke-linejoin:round;stroke-miterlimit:1.5;"/>
                </g>
            </g>
            <g transform="matrix(-0.5,-0.866025,0.363092,-0.209631,199.867,597.619)">
                <g transform="matrix(-0.542878,2.24273,-0.940291,-1.29484,619.145,243.098)">
                    <path d="M131.474,331.592L113.831,326.865L118.559,309.223" style="fill:none;stroke:black;stroke-width:4px;"/>
                    <path d="M157.306,301.765C157.306,301.765 123.343,321.373 113.831,326.865" style="fill:none;stroke:black;stroke-width:4px;stroke-linejoin:round;stroke-miterlimit:1.5;"/>
                </g>
            </g>
            <g transform="matrix(-0.5,0.866025,-0.363092,-0.209631,174.559,-52.8935)">
                <g transform="matrix(-0.542878,-2.24273,0.940291,-1.29484,152.867,329.295)">
                    <path d="M35.531,108.901L40.258,126.544L22.616,131.271" style="fill:none;stroke:black;stroke-opacity:0.33;stroke-width:4px;"/>
                    <path d="M-3.217,101.444C-3.217,101.444 30.746,121.052 40.258,126.544" style="fill:none;stroke:black;stroke-opacity:0.33;stroke-width:4px;stroke-linejoin:round;stroke-miterlimit:1.5;"/>
                </g>
            </g>
            <g transform="matrix(-0.5,0.866025,-0.363092,-0.209631,550.133,164.607)">
                <g transform="matrix(-0.542878,-2.24273,0.940291,-1.29484,152.294,1364.46)">
                    <path d="M381.441,309.223L386.169,326.865L368.526,331.592" style="fill:none;stroke:black;stroke-width:4px;"/>
                    <path d="M342.694,301.765C342.694,301.765 376.657,321.373 386.169,326.865" style="fill:none;stroke:black;stroke-width:4px;stroke-linejoin:round;stroke-miterlimit:1.5;"/>
                </g>
            </g>
            <g transform="matrix(1.08576,0,0,1.08576,-21.4388,10.463)">
                <circle cx="250" cy="250" r="249.276" style="fill:none;stroke:black;stroke-opacity:0.33;stroke-width:2.5px;stroke-linejoin:round;stroke-miterlimit:1.5;"/>
            </g>
        </g>
    </g>
</svg>
